Coordinates
version=1
nRows=65
nColumns=12
inDegrees=yes

Units are S.I. units (second, meters, Newtons, ...)
Angles are in degrees

endheader
time	SC_y	SC_z	SC_x	AC_y	AC_z	AC_x	GH_y	GH_z	GH_yy	EL_x	PS_y
       0.0              -36.32          23.06          54.55           54.8         -6.588          12.12         -17.58         0.8986          12.22          128.9          114.5
   0.01767              -36.31          23.06          54.54           54.8         -6.586          12.12         -17.58         0.9115          12.21          128.9          114.5
   0.03535              -36.31          23.06          54.53           54.8         -6.585          12.12         -17.59         0.9252          12.21          128.9          114.5
   0.05302              -36.31          23.06          54.53           54.8         -6.584          12.12         -17.59         0.9398           12.2          128.9          114.5
    0.0707              -36.31          23.06          54.52           54.8         -6.582          12.12          -17.6         0.9553          12.19          128.9          114.5
   0.08837              -36.31          23.06          54.51           54.8          -6.58          12.12          -17.6         0.9718          12.19          128.9          114.5
     0.106               -36.3          23.06           54.5           54.8         -6.579          12.12         -17.61         0.9895          12.18          128.9          114.5
    0.1237               -36.3          23.06          54.49           54.8         -6.577          12.12         -17.62          1.008          12.17          128.8          114.5
    0.1414               -36.3          23.06          54.48          54.81         -6.575          12.12         -17.63          1.029          12.16          128.8          114.4
    0.1591              -36.29          23.06          54.47          54.81         -6.573          12.12         -17.63           1.05          12.15          128.8          114.4
    0.1767              -36.29          23.06          54.45          54.81          -6.57          12.12         -17.64          1.074          12.14          128.8          114.4
    0.1944              -36.29          23.06          54.44          54.81         -6.568          12.12         -17.65          1.099          12.13          128.8          114.4
    0.2121              -36.28          23.06          54.42          54.81         -6.565          12.12         -17.66          1.126          12.11          128.8          114.4
    0.2298              -36.28          23.06          54.41          54.82         -6.562          12.12         -17.67          1.155           12.1          128.7          114.4
    0.2474              -36.28          23.06          54.39          54.82         -6.559          12.12         -17.68          1.187          12.09          128.7          114.4
    0.2651              -36.27          23.06          54.37          54.82         -6.556          12.12          -17.7          1.221          12.07          128.7          114.4
    0.2828              -36.27          23.06          54.35          54.82         -6.552          12.12         -17.71          1.258          12.05          128.6          114.4
    0.3005              -36.26          23.05          54.33          54.83         -6.548          12.12         -17.72          1.299          12.03          128.6          114.4
    0.3181              -36.25          23.05          54.31          54.83         -6.544          12.12         -17.74          1.343          12.01          128.6          114.4
    0.3358              -36.25          23.05          54.28          54.84         -6.539          12.12         -17.76          1.392          11.99          128.5          114.3
    0.3535              -36.24          23.05          54.25          54.84         -6.534          12.12         -17.78          1.445          11.97          128.5          114.3
    0.3712              -36.23          23.05          54.22          54.85         -6.528          12.12          -17.8          1.504          11.94          128.5          114.3
    0.3888              -36.22          23.05          54.19          54.85         -6.522          12.12         -17.82          1.568          11.91          128.4          114.3
    0.4065              -36.21          23.05          54.15          54.86         -6.514          12.12         -17.85           1.64          11.87          128.3          114.3
    0.4242               -36.2          23.05           54.1          54.86         -6.507          12.12         -17.88           1.72          11.84          128.3          114.3
    0.4419              -36.19          23.05          54.06          54.87         -6.498          12.12         -17.91          1.809           11.8          128.2          114.2
    0.4595              -36.18          23.04           54.0          54.88         -6.488          12.13         -17.95          1.909          11.75          128.1          114.2
    0.4772              -36.16          23.04          53.94          54.89         -6.477          12.13         -17.99          2.021           11.7          128.1          114.2
    0.4949              -36.14          23.04          53.87           54.9         -6.464          12.13         -18.04          2.148          11.64          128.0          114.1
    0.5125              -36.12          23.04          53.79          54.91          -6.45          12.13         -18.09          2.292          11.57          127.8          114.1
    0.5302               -36.1          23.03          53.71          54.92         -6.434          12.13         -18.15          2.456           11.5          127.7          114.1
    0.5479              -36.08          23.03           53.6          54.94         -6.415          12.13         -18.22          2.644          11.41          127.6          114.0
    0.5656              -36.05          23.03          53.49          54.96         -6.394          12.13          -18.3          2.862          11.31          127.4          113.9
    0.5832              -36.01          23.02          53.35          54.98         -6.369          12.13         -18.39          3.115          11.19          127.2          113.9
    0.6009              -35.97          23.02          53.19           55.0          -6.34          12.14          -18.5          3.411          11.05          127.0          113.8
    0.6186              -35.92          23.01           53.0          55.03         -6.305          12.14         -18.63           3.76          10.89          126.7          113.7
    0.6363              -35.86           23.0          52.78          55.07         -6.265          12.14         -18.78          4.174           10.7          126.4          113.6
    0.6539               -35.8          22.99          52.51          55.11         -6.216          12.14         -18.96          4.671          10.47          126.0          113.5
    0.6716              -35.71          22.98          52.18          55.16         -6.156          12.15         -19.19          5.273          10.19          125.5          113.3
    0.6893              -35.61          22.97          51.79          55.22         -6.084          12.15         -19.46          6.007          9.849          124.9          113.1
     0.707              -35.49          22.95           51.3          55.29         -5.995          12.16         -19.79          6.913          9.428          124.2          112.8
    0.7246              -35.33          22.93          50.69          55.38         -5.883          12.17          -20.2          8.044          8.903          123.3          112.5
    0.7423              -35.13          22.91          49.92           55.5         -5.743          12.18         -20.73          9.468          8.243          122.2          112.2
      0.76              -34.88          22.87          48.94          55.65         -5.564          12.19         -21.39          11.28          7.403          120.8          111.7
    0.7777              -34.57          22.83          47.69          55.84         -5.336          12.21         -22.24          13.59          6.328          119.0          111.0
    0.7953              -34.16          22.78          46.08          56.09         -5.043          12.23         -23.34          16.57          4.948          116.7          110.2
     0.813              -33.63          22.71          44.03           56.4         -4.668          12.25         -24.73          20.37          3.185          113.7          109.2
    0.8307              -32.97          22.62          41.45          56.79         -4.197          12.29         -26.49          25.14         0.9694          109.9          107.9
    0.8484              -32.17          22.51           38.3          57.27         -3.624          12.33         -28.63          30.96         -1.731          105.4          106.3
     0.866              -31.24          22.39          34.66          57.83         -2.959          12.37         -31.11          37.71         -4.861          100.1          104.5
    0.8837              -30.23          22.26          30.71          58.43         -2.238          12.42         -33.79          45.01         -8.251          94.37          102.5
    0.9014              -29.23          22.12          26.77          59.03         -1.518          12.47         -36.48          52.31         -11.64          88.65          100.5
    0.9191               -28.3           22.0          23.12          59.59        -0.8532          12.52         -38.95          59.06         -14.77          83.36          98.69
    0.9367               -27.5          21.89          19.98          60.07        -0.2794          12.56         -41.09          64.88         -17.47           78.8          97.11
    0.9544              -26.84          21.81           17.4          60.46         0.1914           12.6         -42.85          69.65         -19.69          75.06          95.81
    0.9721              -26.31          21.74          15.34          60.78         0.5659          12.62         -44.25          73.45         -21.45          72.08          94.78
    0.9897               -25.9          21.68          13.74          61.02          0.859          12.64         -45.34          76.43         -22.83          69.75          93.98
     1.007              -25.58          21.64          12.49          61.21          1.087          12.66         -46.19          78.74          -23.9          67.94          93.35
     1.025              -25.33          21.61          11.51          61.36          1.266          12.67         -46.85          80.55         -24.74          66.52          92.86
     1.043              -25.14          21.58          10.74          61.48          1.406          12.68         -47.38          81.98          -25.4          65.41          92.47
      1.06              -24.98          21.56          10.13          61.57          1.518          12.69         -47.79          83.11         -25.93          64.52          92.16
     1.078              -24.86          21.55          9.638          61.65          1.607          12.69         -48.13          84.01         -26.35          63.81          91.92
     1.096              -24.76          21.53          9.241          61.71           1.68           12.7          -48.4          84.75         -26.69          63.23          91.72
     1.113              -24.67          21.52          8.916          61.76          1.739           12.7         -48.62          85.35         -26.97          62.76          91.55
     1.131              -24.61          21.51          8.647           61.8          1.788          12.71          -48.8          85.85          -27.2          62.37          91.42
